<svg xmlns="http://www.w3.org/2000/svg" xmlns:xlink="http://www.w3.org/1999/xlink" width="600" height="400" viewBox="0 0 2400 1600">
<defs>
  <clipPath id="clip070">
    <rect x="0" y="0" width="2400" height="1600"></rect>
  </clipPath>
</defs>
<path clip-path="url(#clip070)" d="M0 1600 L2400 1600 L2400 0 L0 0  Z" fill="#ffffff" fill-rule="evenodd" fill-opacity="1"></path>
<defs>
  <clipPath id="clip071">
    <rect x="480" y="0" width="1681" height="1600"></rect>
  </clipPath>
</defs>
<path clip-path="url(#clip070)" d="M249.542 1423.18 L2352.76 1423.18 L2352.76 123.472 L249.542 123.472  Z" fill="#ffffff" fill-rule="evenodd" fill-opacity="1"></path>
<defs>
  <clipPath id="clip072">
    <rect x="249" y="123" width="2104" height="1301"></rect>
  </clipPath>
</defs>
<polyline clip-path="url(#clip072)" style="stroke:#000000; stroke-linecap:round; stroke-linejoin:round; stroke-width:2; stroke-opacity:0.1; fill:none" points="309.067,1423.18 309.067,123.472 "></polyline>
<polyline clip-path="url(#clip072)" style="stroke:#000000; stroke-linecap:round; stroke-linejoin:round; stroke-width:2; stroke-opacity:0.1; fill:none" points="805.108,1423.18 805.108,123.472 "></polyline>
<polyline clip-path="url(#clip072)" style="stroke:#000000; stroke-linecap:round; stroke-linejoin:round; stroke-width:2; stroke-opacity:0.1; fill:none" points="1301.15,1423.18 1301.15,123.472 "></polyline>
<polyline clip-path="url(#clip072)" style="stroke:#000000; stroke-linecap:round; stroke-linejoin:round; stroke-width:2; stroke-opacity:0.1; fill:none" points="1797.19,1423.18 1797.19,123.472 "></polyline>
<polyline clip-path="url(#clip072)" style="stroke:#000000; stroke-linecap:round; stroke-linejoin:round; stroke-width:2; stroke-opacity:0.1; fill:none" points="2293.23,1423.18 2293.23,123.472 "></polyline>
<polyline clip-path="url(#clip072)" style="stroke:#000000; stroke-linecap:round; stroke-linejoin:round; stroke-width:2; stroke-opacity:0.1; fill:none" points="249.542,1386.4 2352.76,1386.4 "></polyline>
<polyline clip-path="url(#clip072)" style="stroke:#000000; stroke-linecap:round; stroke-linejoin:round; stroke-width:2; stroke-opacity:0.1; fill:none" points="249.542,1079.86 2352.76,1079.86 "></polyline>
<polyline clip-path="url(#clip072)" style="stroke:#000000; stroke-linecap:round; stroke-linejoin:round; stroke-width:2; stroke-opacity:0.1; fill:none" points="249.542,773.326 2352.76,773.326 "></polyline>
<polyline clip-path="url(#clip072)" style="stroke:#000000; stroke-linecap:round; stroke-linejoin:round; stroke-width:2; stroke-opacity:0.1; fill:none" points="249.542,466.791 2352.76,466.791 "></polyline>
<polyline clip-path="url(#clip072)" style="stroke:#000000; stroke-linecap:round; stroke-linejoin:round; stroke-width:2; stroke-opacity:0.1; fill:none" points="249.542,160.256 2352.76,160.256 "></polyline>
<polyline clip-path="url(#clip070)" style="stroke:#000000; stroke-linecap:round; stroke-linejoin:round; stroke-width:4; stroke-opacity:1; fill:none" points="249.542,1423.18 2352.76,1423.18 "></polyline>
<polyline clip-path="url(#clip070)" style="stroke:#000000; stroke-linecap:round; stroke-linejoin:round; stroke-width:4; stroke-opacity:1; fill:none" points="309.067,1423.18 309.067,1404.28 "></polyline>
<polyline clip-path="url(#clip070)" style="stroke:#000000; stroke-linecap:round; stroke-linejoin:round; stroke-width:4; stroke-opacity:1; fill:none" points="805.108,1423.18 805.108,1404.28 "></polyline>
<polyline clip-path="url(#clip070)" style="stroke:#000000; stroke-linecap:round; stroke-linejoin:round; stroke-width:4; stroke-opacity:1; fill:none" points="1301.15,1423.18 1301.15,1404.28 "></polyline>
<polyline clip-path="url(#clip070)" style="stroke:#000000; stroke-linecap:round; stroke-linejoin:round; stroke-width:4; stroke-opacity:1; fill:none" points="1797.19,1423.18 1797.19,1404.28 "></polyline>
<polyline clip-path="url(#clip070)" style="stroke:#000000; stroke-linecap:round; stroke-linejoin:round; stroke-width:4; stroke-opacity:1; fill:none" points="2293.23,1423.18 2293.23,1404.28 "></polyline>
<path clip-path="url(#clip070)" d="M271.37 1454.1 Q267.759 1454.1 265.931 1457.66 Q264.125 1461.2 264.125 1468.33 Q264.125 1475.44 265.931 1479.01 Q267.759 1482.55 271.37 1482.55 Q275.005 1482.55 276.81 1479.01 Q278.639 1475.44 278.639 1468.33 Q278.639 1461.2 276.81 1457.66 Q275.005 1454.1 271.37 1454.1 M271.37 1450.39 Q277.181 1450.39 280.236 1455 Q283.315 1459.58 283.315 1468.33 Q283.315 1477.06 280.236 1481.67 Q277.181 1486.25 271.37 1486.25 Q265.56 1486.25 262.482 1481.67 Q259.426 1477.06 259.426 1468.33 Q259.426 1459.58 262.482 1455 Q265.56 1450.39 271.37 1450.39 Z" fill="#000000" fill-rule="nonzero" fill-opacity="1"></path><path clip-path="url(#clip070)" d="M291.532 1479.7 L296.417 1479.7 L296.417 1485.58 L291.532 1485.58 L291.532 1479.7 Z" fill="#000000" fill-rule="nonzero" fill-opacity="1"></path><path clip-path="url(#clip070)" d="M316.602 1454.1 Q312.991 1454.1 311.162 1457.66 Q309.356 1461.2 309.356 1468.33 Q309.356 1475.44 311.162 1479.01 Q312.991 1482.55 316.602 1482.55 Q320.236 1482.55 322.041 1479.01 Q323.87 1475.44 323.87 1468.33 Q323.87 1461.2 322.041 1457.66 Q320.236 1454.1 316.602 1454.1 M316.602 1450.39 Q322.412 1450.39 325.467 1455 Q328.546 1459.58 328.546 1468.33 Q328.546 1477.06 325.467 1481.67 Q322.412 1486.25 316.602 1486.25 Q310.791 1486.25 307.713 1481.67 Q304.657 1477.06 304.657 1468.33 Q304.657 1459.58 307.713 1455 Q310.791 1450.39 316.602 1450.39 Z" fill="#000000" fill-rule="nonzero" fill-opacity="1"></path><path clip-path="url(#clip070)" d="M346.764 1454.1 Q343.152 1454.1 341.324 1457.66 Q339.518 1461.2 339.518 1468.33 Q339.518 1475.44 341.324 1479.01 Q343.152 1482.55 346.764 1482.55 Q350.398 1482.55 352.203 1479.01 Q354.032 1475.44 354.032 1468.33 Q354.032 1461.2 352.203 1457.66 Q350.398 1454.1 346.764 1454.1 M346.764 1450.39 Q352.574 1450.39 355.629 1455 Q358.708 1459.58 358.708 1468.33 Q358.708 1477.06 355.629 1481.67 Q352.574 1486.25 346.764 1486.25 Q340.953 1486.25 337.875 1481.67 Q334.819 1477.06 334.819 1468.33 Q334.819 1459.58 337.875 1455 Q340.953 1450.39 346.764 1450.39 Z" fill="#000000" fill-rule="nonzero" fill-opacity="1"></path><path clip-path="url(#clip070)" d="M767.909 1454.1 Q764.298 1454.1 762.469 1457.66 Q760.664 1461.2 760.664 1468.33 Q760.664 1475.44 762.469 1479.01 Q764.298 1482.55 767.909 1482.55 Q771.543 1482.55 773.349 1479.01 Q775.178 1475.44 775.178 1468.33 Q775.178 1461.2 773.349 1457.66 Q771.543 1454.1 767.909 1454.1 M767.909 1450.39 Q773.719 1450.39 776.775 1455 Q779.853 1459.58 779.853 1468.33 Q779.853 1477.06 776.775 1481.67 Q773.719 1486.25 767.909 1486.25 Q762.099 1486.25 759.02 1481.67 Q755.965 1477.06 755.965 1468.33 Q755.965 1459.58 759.02 1455 Q762.099 1450.39 767.909 1450.39 Z" fill="#000000" fill-rule="nonzero" fill-opacity="1"></path><path clip-path="url(#clip070)" d="M788.071 1479.7 L792.955 1479.7 L792.955 1485.58 L788.071 1485.58 L788.071 1479.7 Z" fill="#000000" fill-rule="nonzero" fill-opacity="1"></path><path clip-path="url(#clip070)" d="M807.168 1481.64 L823.487 1481.64 L823.487 1485.58 L801.543 1485.58 L801.543 1481.64 Q804.205 1478.89 808.788 1474.26 Q813.395 1469.61 814.576 1468.27 Q816.821 1465.74 817.7 1464.01 Q818.603 1462.25 818.603 1460.56 Q818.603 1457.8 816.659 1456.07 Q814.738 1454.33 811.636 1454.33 Q809.437 1454.33 806.983 1455.09 Q804.552 1455.86 801.775 1457.41 L801.775 1452.69 Q804.599 1451.55 807.052 1450.97 Q809.506 1450.39 811.543 1450.39 Q816.913 1450.39 820.108 1453.08 Q823.302 1455.77 823.302 1460.26 Q823.302 1462.39 822.492 1464.31 Q821.705 1466.2 819.599 1468.8 Q819.02 1469.47 815.918 1472.69 Q812.816 1475.88 807.168 1481.64 Z" fill="#000000" fill-rule="nonzero" fill-opacity="1"></path><path clip-path="url(#clip070)" d="M833.349 1451.02 L851.705 1451.02 L851.705 1454.96 L837.631 1454.96 L837.631 1463.43 Q838.649 1463.08 839.668 1462.92 Q840.686 1462.73 841.705 1462.73 Q847.492 1462.73 850.872 1465.9 Q854.251 1469.08 854.251 1474.49 Q854.251 1480.07 850.779 1483.17 Q847.307 1486.25 840.987 1486.25 Q838.811 1486.25 836.543 1485.88 Q834.298 1485.51 831.89 1484.77 L831.89 1480.07 Q833.974 1481.2 836.196 1481.76 Q838.418 1482.32 840.895 1482.32 Q844.899 1482.32 847.237 1480.21 Q849.575 1478.1 849.575 1474.49 Q849.575 1470.88 847.237 1468.77 Q844.899 1466.67 840.895 1466.67 Q839.02 1466.67 837.145 1467.08 Q835.293 1467.5 833.349 1468.38 L833.349 1451.02 Z" fill="#000000" fill-rule="nonzero" fill-opacity="1"></path><path clip-path="url(#clip070)" d="M1263.45 1454.1 Q1259.84 1454.1 1258.01 1457.66 Q1256.21 1461.2 1256.21 1468.33 Q1256.21 1475.44 1258.01 1479.01 Q1259.84 1482.55 1263.45 1482.55 Q1267.09 1482.55 1268.89 1479.01 Q1270.72 1475.44 1270.72 1468.33 Q1270.72 1461.2 1268.89 1457.66 Q1267.09 1454.1 1263.45 1454.1 M1263.45 1450.39 Q1269.26 1450.39 1272.32 1455 Q1275.4 1459.58 1275.4 1468.33 Q1275.4 1477.06 1272.32 1481.67 Q1269.26 1486.25 1263.45 1486.25 Q1257.64 1486.25 1254.56 1481.67 Q1251.51 1477.06 1251.51 1468.33 Q1251.51 1459.58 1254.56 1455 Q1257.64 1450.39 1263.45 1450.39 Z" fill="#000000" fill-rule="nonzero" fill-opacity="1"></path><path clip-path="url(#clip070)" d="M1283.61 1479.7 L1288.5 1479.7 L1288.5 1485.58 L1283.61 1485.58 L1283.61 1479.7 Z" fill="#000000" fill-rule="nonzero" fill-opacity="1"></path><path clip-path="url(#clip070)" d="M1298.73 1451.02 L1317.09 1451.02 L1317.09 1454.96 L1303.01 1454.96 L1303.01 1463.43 Q1304.03 1463.08 1305.05 1462.92 Q1306.07 1462.73 1307.09 1462.73 Q1312.87 1462.73 1316.25 1465.9 Q1319.63 1469.08 1319.63 1474.49 Q1319.63 1480.07 1316.16 1483.17 Q1312.69 1486.25 1306.37 1486.25 Q1304.19 1486.25 1301.92 1485.88 Q1299.68 1485.51 1297.27 1484.77 L1297.27 1480.07 Q1299.35 1481.2 1301.58 1481.76 Q1303.8 1482.32 1306.28 1482.32 Q1310.28 1482.32 1312.62 1480.21 Q1314.96 1478.1 1314.96 1474.49 Q1314.96 1470.88 1312.62 1468.77 Q1310.28 1466.67 1306.28 1466.67 Q1304.4 1466.67 1302.53 1467.08 Q1300.67 1467.5 1298.73 1468.38 L1298.73 1451.02 Z" fill="#000000" fill-rule="nonzero" fill-opacity="1"></path><path clip-path="url(#clip070)" d="M1338.85 1454.1 Q1335.23 1454.1 1333.41 1457.66 Q1331.6 1461.2 1331.6 1468.33 Q1331.6 1475.44 1333.41 1479.01 Q1335.23 1482.55 1338.85 1482.55 Q1342.48 1482.55 1344.29 1479.01 Q1346.11 1475.44 1346.11 1468.33 Q1346.11 1461.2 1344.29 1457.66 Q1342.48 1454.1 1338.85 1454.1 M1338.85 1450.39 Q1344.66 1450.39 1347.71 1455 Q1350.79 1459.58 1350.79 1468.33 Q1350.79 1477.06 1347.71 1481.67 Q1344.66 1486.25 1338.85 1486.25 Q1333.04 1486.25 1329.96 1481.67 Q1326.9 1477.06 1326.9 1468.33 Q1326.9 1459.58 1329.96 1455 Q1333.04 1450.39 1338.85 1450.39 Z" fill="#000000" fill-rule="nonzero" fill-opacity="1"></path><path clip-path="url(#clip070)" d="M1759.99 1454.1 Q1756.38 1454.1 1754.55 1457.66 Q1752.75 1461.2 1752.75 1468.33 Q1752.75 1475.44 1754.55 1479.01 Q1756.38 1482.55 1759.99 1482.55 Q1763.63 1482.55 1765.43 1479.01 Q1767.26 1475.44 1767.26 1468.33 Q1767.26 1461.2 1765.43 1457.66 Q1763.63 1454.1 1759.99 1454.1 M1759.99 1450.39 Q1765.8 1450.39 1768.86 1455 Q1771.94 1459.58 1771.94 1468.33 Q1771.94 1477.06 1768.86 1481.67 Q1765.8 1486.25 1759.99 1486.25 Q1754.18 1486.25 1751.1 1481.67 Q1748.05 1477.06 1748.05 1468.33 Q1748.05 1459.58 1751.1 1455 Q1754.18 1450.39 1759.99 1450.39 Z" fill="#000000" fill-rule="nonzero" fill-opacity="1"></path><path clip-path="url(#clip070)" d="M1780.15 1479.7 L1785.04 1479.7 L1785.04 1485.58 L1780.15 1485.58 L1780.15 1479.7 Z" fill="#000000" fill-rule="nonzero" fill-opacity="1"></path><path clip-path="url(#clip070)" d="M1794.04 1451.02 L1816.26 1451.02 L1816.26 1453.01 L1803.72 1485.58 L1798.83 1485.58 L1810.64 1454.96 L1794.04 1454.96 L1794.04 1451.02 Z" fill="#000000" fill-rule="nonzero" fill-opacity="1"></path><path clip-path="url(#clip070)" d="M1825.43 1451.02 L1843.79 1451.02 L1843.79 1454.96 L1829.71 1454.96 L1829.71 1463.43 Q1830.73 1463.08 1831.75 1462.92 Q1832.77 1462.73 1833.79 1462.73 Q1839.57 1462.73 1842.95 1465.9 Q1846.33 1469.08 1846.33 1474.49 Q1846.33 1480.07 1842.86 1483.17 Q1839.39 1486.25 1833.07 1486.25 Q1830.89 1486.25 1828.62 1485.88 Q1826.38 1485.51 1823.97 1484.77 L1823.97 1480.07 Q1826.06 1481.2 1828.28 1481.76 Q1830.5 1482.32 1832.98 1482.32 Q1836.98 1482.32 1839.32 1480.21 Q1841.66 1478.1 1841.66 1474.49 Q1841.66 1470.88 1839.32 1468.77 Q1836.98 1466.67 1832.98 1466.67 Q1831.1 1466.67 1829.23 1467.08 Q1827.38 1467.5 1825.43 1468.38 L1825.43 1451.02 Z" fill="#000000" fill-rule="nonzero" fill-opacity="1"></path><path clip-path="url(#clip070)" d="M2245.3 1481.64 L2252.94 1481.64 L2252.94 1455.28 L2244.63 1456.95 L2244.63 1452.69 L2252.9 1451.02 L2257.57 1451.02 L2257.57 1481.64 L2265.21 1481.64 L2265.21 1485.58 L2245.3 1485.58 L2245.3 1481.64 Z" fill="#000000" fill-rule="nonzero" fill-opacity="1"></path><path clip-path="url(#clip070)" d="M2274.65 1479.7 L2279.54 1479.7 L2279.54 1485.58 L2274.65 1485.58 L2274.65 1479.7 Z" fill="#000000" fill-rule="nonzero" fill-opacity="1"></path><path clip-path="url(#clip070)" d="M2299.72 1454.1 Q2296.11 1454.1 2294.28 1457.66 Q2292.48 1461.2 2292.48 1468.33 Q2292.48 1475.44 2294.28 1479.01 Q2296.11 1482.55 2299.72 1482.55 Q2303.36 1482.55 2305.16 1479.01 Q2306.99 1475.44 2306.99 1468.33 Q2306.99 1461.2 2305.16 1457.66 Q2303.36 1454.1 2299.72 1454.1 M2299.72 1450.39 Q2305.53 1450.39 2308.59 1455 Q2311.67 1459.58 2311.67 1468.33 Q2311.67 1477.06 2308.59 1481.67 Q2305.53 1486.25 2299.72 1486.25 Q2293.91 1486.25 2290.84 1481.67 Q2287.78 1477.06 2287.78 1468.33 Q2287.78 1459.58 2290.84 1455 Q2293.91 1450.39 2299.72 1450.39 Z" fill="#000000" fill-rule="nonzero" fill-opacity="1"></path><path clip-path="url(#clip070)" d="M2329.89 1454.1 Q2326.27 1454.1 2324.45 1457.66 Q2322.64 1461.2 2322.64 1468.33 Q2322.64 1475.44 2324.45 1479.01 Q2326.27 1482.55 2329.89 1482.55 Q2333.52 1482.55 2335.33 1479.01 Q2337.15 1475.44 2337.15 1468.33 Q2337.15 1461.2 2335.33 1457.66 Q2333.52 1454.1 2329.89 1454.1 M2329.89 1450.39 Q2335.7 1450.39 2338.75 1455 Q2341.83 1459.58 2341.83 1468.33 Q2341.83 1477.06 2338.75 1481.67 Q2335.7 1486.25 2329.89 1486.25 Q2324.08 1486.25 2321 1481.67 Q2317.94 1477.06 2317.94 1468.33 Q2317.94 1459.58 2321 1455 Q2324.08 1450.39 2329.89 1450.39 Z" fill="#000000" fill-rule="nonzero" fill-opacity="1"></path><path clip-path="url(#clip070)" d="M1317.76 1532.4 L1304.87 1549.74 L1318.43 1568.04 L1311.53 1568.04 L1301.15 1554.04 L1290.77 1568.04 L1283.87 1568.04 L1297.71 1549.39 L1285.04 1532.4 L1291.95 1532.4 L1301.4 1545.1 L1310.86 1532.4 L1317.76 1532.4 Z" fill="#000000" fill-rule="nonzero" fill-opacity="1"></path><polyline clip-path="url(#clip070)" style="stroke:#000000; stroke-linecap:round; stroke-linejoin:round; stroke-width:4; stroke-opacity:1; fill:none" points="249.542,1423.18 249.542,123.472 "></polyline>
<polyline clip-path="url(#clip070)" style="stroke:#000000; stroke-linecap:round; stroke-linejoin:round; stroke-width:4; stroke-opacity:1; fill:none" points="249.542,1386.4 268.44,1386.4 "></polyline>
<polyline clip-path="url(#clip070)" style="stroke:#000000; stroke-linecap:round; stroke-linejoin:round; stroke-width:4; stroke-opacity:1; fill:none" points="249.542,1079.86 268.44,1079.86 "></polyline>
<polyline clip-path="url(#clip070)" style="stroke:#000000; stroke-linecap:round; stroke-linejoin:round; stroke-width:4; stroke-opacity:1; fill:none" points="249.542,773.326 268.44,773.326 "></polyline>
<polyline clip-path="url(#clip070)" style="stroke:#000000; stroke-linecap:round; stroke-linejoin:round; stroke-width:4; stroke-opacity:1; fill:none" points="249.542,466.791 268.44,466.791 "></polyline>
<polyline clip-path="url(#clip070)" style="stroke:#000000; stroke-linecap:round; stroke-linejoin:round; stroke-width:4; stroke-opacity:1; fill:none" points="249.542,160.256 268.44,160.256 "></polyline>
<path clip-path="url(#clip070)" d="M126.205 1372.19 Q122.593 1372.19 120.765 1375.76 Q118.959 1379.3 118.959 1386.43 Q118.959 1393.54 120.765 1397.1 Q122.593 1400.64 126.205 1400.64 Q129.839 1400.64 131.644 1397.1 Q133.473 1393.54 133.473 1386.43 Q133.473 1379.3 131.644 1375.76 Q129.839 1372.19 126.205 1372.19 M126.205 1368.49 Q132.015 1368.49 135.07 1373.1 Q138.149 1377.68 138.149 1386.43 Q138.149 1395.16 135.07 1399.76 Q132.015 1404.35 126.205 1404.35 Q120.394 1404.35 117.316 1399.76 Q114.26 1395.16 114.26 1386.43 Q114.26 1377.68 117.316 1373.1 Q120.394 1368.49 126.205 1368.49 Z" fill="#000000" fill-rule="nonzero" fill-opacity="1"></path><path clip-path="url(#clip070)" d="M146.366 1397.8 L151.251 1397.8 L151.251 1403.68 L146.366 1403.68 L146.366 1397.8 Z" fill="#000000" fill-rule="nonzero" fill-opacity="1"></path><path clip-path="url(#clip070)" d="M171.436 1372.19 Q167.825 1372.19 165.996 1375.76 Q164.19 1379.3 164.19 1386.43 Q164.19 1393.54 165.996 1397.1 Q167.825 1400.64 171.436 1400.64 Q175.07 1400.64 176.876 1397.1 Q178.704 1393.54 178.704 1386.43 Q178.704 1379.3 176.876 1375.76 Q175.07 1372.19 171.436 1372.19 M171.436 1368.49 Q177.246 1368.49 180.301 1373.1 Q183.38 1377.68 183.38 1386.43 Q183.38 1395.16 180.301 1399.76 Q177.246 1404.35 171.436 1404.35 Q165.626 1404.35 162.547 1399.76 Q159.491 1395.16 159.491 1386.43 Q159.491 1377.68 162.547 1373.1 Q165.626 1368.49 171.436 1368.49 Z" fill="#000000" fill-rule="nonzero" fill-opacity="1"></path><path clip-path="url(#clip070)" d="M201.598 1372.19 Q197.987 1372.19 196.158 1375.76 Q194.352 1379.3 194.352 1386.43 Q194.352 1393.54 196.158 1397.1 Q197.987 1400.64 201.598 1400.64 Q205.232 1400.64 207.037 1397.1 Q208.866 1393.54 208.866 1386.43 Q208.866 1379.3 207.037 1375.76 Q205.232 1372.19 201.598 1372.19 M201.598 1368.49 Q207.408 1368.49 210.463 1373.1 Q213.542 1377.68 213.542 1386.43 Q213.542 1395.16 210.463 1399.76 Q207.408 1404.35 201.598 1404.35 Q195.787 1404.35 192.709 1399.76 Q189.653 1395.16 189.653 1386.43 Q189.653 1377.68 192.709 1373.1 Q195.787 1368.49 201.598 1368.49 Z" fill="#000000" fill-rule="nonzero" fill-opacity="1"></path><path clip-path="url(#clip070)" d="M127.2 1065.66 Q123.589 1065.66 121.76 1069.22 Q119.955 1072.77 119.955 1079.9 Q119.955 1087 121.76 1090.57 Q123.589 1094.11 127.2 1094.11 Q130.834 1094.11 132.64 1090.57 Q134.468 1087 134.468 1079.9 Q134.468 1072.77 132.64 1069.22 Q130.834 1065.66 127.2 1065.66 M127.2 1061.96 Q133.01 1061.96 136.066 1066.56 Q139.144 1071.15 139.144 1079.9 Q139.144 1088.62 136.066 1093.23 Q133.01 1097.81 127.2 1097.81 Q121.39 1097.81 118.311 1093.23 Q115.256 1088.62 115.256 1079.9 Q115.256 1071.15 118.311 1066.56 Q121.39 1061.96 127.2 1061.96 Z" fill="#000000" fill-rule="nonzero" fill-opacity="1"></path><path clip-path="url(#clip070)" d="M147.362 1091.26 L152.246 1091.26 L152.246 1097.14 L147.362 1097.14 L147.362 1091.26 Z" fill="#000000" fill-rule="nonzero" fill-opacity="1"></path><path clip-path="url(#clip070)" d="M166.459 1093.21 L182.778 1093.21 L182.778 1097.14 L160.834 1097.14 L160.834 1093.21 Q163.496 1090.45 168.079 1085.82 Q172.686 1081.17 173.866 1079.83 Q176.112 1077.3 176.991 1075.57 Q177.894 1073.81 177.894 1072.12 Q177.894 1069.36 175.95 1067.63 Q174.028 1065.89 170.927 1065.89 Q168.727 1065.89 166.274 1066.65 Q163.843 1067.42 161.065 1068.97 L161.065 1064.25 Q163.89 1063.11 166.343 1062.53 Q168.797 1061.96 170.834 1061.96 Q176.204 1061.96 179.399 1064.64 Q182.593 1067.33 182.593 1071.82 Q182.593 1073.95 181.783 1075.87 Q180.996 1077.77 178.889 1080.36 Q178.311 1081.03 175.209 1084.25 Q172.107 1087.44 166.459 1093.21 Z" fill="#000000" fill-rule="nonzero" fill-opacity="1"></path><path clip-path="url(#clip070)" d="M192.639 1062.58 L210.996 1062.58 L210.996 1066.52 L196.922 1066.52 L196.922 1074.99 Q197.94 1074.64 198.959 1074.48 Q199.977 1074.29 200.996 1074.29 Q206.783 1074.29 210.162 1077.47 Q213.542 1080.64 213.542 1086.05 Q213.542 1091.63 210.07 1094.73 Q206.598 1097.81 200.278 1097.81 Q198.102 1097.81 195.834 1097.44 Q193.588 1097.07 191.181 1096.33 L191.181 1091.63 Q193.264 1092.77 195.487 1093.32 Q197.709 1093.88 200.186 1093.88 Q204.19 1093.88 206.528 1091.77 Q208.866 1089.66 208.866 1086.05 Q208.866 1082.44 206.528 1080.34 Q204.19 1078.23 200.186 1078.23 Q198.311 1078.23 196.436 1078.65 Q194.584 1079.06 192.639 1079.94 L192.639 1062.58 Z" fill="#000000" fill-rule="nonzero" fill-opacity="1"></path><path clip-path="url(#clip070)" d="M126.205 759.125 Q122.593 759.125 120.765 762.689 Q118.959 766.231 118.959 773.361 Q118.959 780.467 120.765 784.032 Q122.593 787.574 126.205 787.574 Q129.839 787.574 131.644 784.032 Q133.473 780.467 133.473 773.361 Q133.473 766.231 131.644 762.689 Q129.839 759.125 126.205 759.125 M126.205 755.421 Q132.015 755.421 135.07 760.027 Q138.149 764.611 138.149 773.361 Q138.149 782.088 135.07 786.694 Q132.015 791.277 126.205 791.277 Q120.394 791.277 117.316 786.694 Q114.26 782.088 114.26 773.361 Q114.26 764.611 117.316 760.027 Q120.394 755.421 126.205 755.421 Z" fill="#000000" fill-rule="nonzero" fill-opacity="1"></path><path clip-path="url(#clip070)" d="M146.366 784.726 L151.251 784.726 L151.251 790.606 L146.366 790.606 L146.366 784.726 Z" fill="#000000" fill-rule="nonzero" fill-opacity="1"></path><path clip-path="url(#clip070)" d="M161.482 756.046 L179.839 756.046 L179.839 759.981 L165.765 759.981 L165.765 768.453 Q166.783 768.106 167.802 767.944 Q168.82 767.759 169.839 767.759 Q175.626 767.759 179.005 770.93 Q182.385 774.101 182.385 779.518 Q182.385 785.097 178.913 788.199 Q175.44 791.277 169.121 791.277 Q166.945 791.277 164.677 790.907 Q162.431 790.537 160.024 789.796 L160.024 785.097 Q162.107 786.231 164.329 786.787 Q166.552 787.342 169.028 787.342 Q173.033 787.342 175.371 785.236 Q177.709 783.129 177.709 779.518 Q177.709 775.907 175.371 773.801 Q173.033 771.694 169.028 771.694 Q167.153 771.694 165.278 772.111 Q163.427 772.527 161.482 773.407 L161.482 756.046 Z" fill="#000000" fill-rule="nonzero" fill-opacity="1"></path><path clip-path="url(#clip070)" d="M201.598 759.125 Q197.987 759.125 196.158 762.689 Q194.352 766.231 194.352 773.361 Q194.352 780.467 196.158 784.032 Q197.987 787.574 201.598 787.574 Q205.232 787.574 207.037 784.032 Q208.866 780.467 208.866 773.361 Q208.866 766.231 207.037 762.689 Q205.232 759.125 201.598 759.125 M201.598 755.421 Q207.408 755.421 210.463 760.027 Q213.542 764.611 213.542 773.361 Q213.542 782.088 210.463 786.694 Q207.408 791.277 201.598 791.277 Q195.787 791.277 192.709 786.694 Q189.653 782.088 189.653 773.361 Q189.653 764.611 192.709 760.027 Q195.787 755.421 201.598 755.421 Z" fill="#000000" fill-rule="nonzero" fill-opacity="1"></path><path clip-path="url(#clip070)" d="M127.2 452.59 Q123.589 452.59 121.76 456.155 Q119.955 459.696 119.955 466.826 Q119.955 473.932 121.76 477.497 Q123.589 481.039 127.2 481.039 Q130.834 481.039 132.64 477.497 Q134.468 473.932 134.468 466.826 Q134.468 459.696 132.64 456.155 Q130.834 452.59 127.2 452.59 M127.2 448.886 Q133.01 448.886 136.066 453.493 Q139.144 458.076 139.144 466.826 Q139.144 475.553 136.066 480.159 Q133.01 484.742 127.2 484.742 Q121.39 484.742 118.311 480.159 Q115.256 475.553 115.256 466.826 Q115.256 458.076 118.311 453.493 Q121.39 448.886 127.2 448.886 Z" fill="#000000" fill-rule="nonzero" fill-opacity="1"></path><path clip-path="url(#clip070)" d="M147.362 478.192 L152.246 478.192 L152.246 484.071 L147.362 484.071 L147.362 478.192 Z" fill="#000000" fill-rule="nonzero" fill-opacity="1"></path><path clip-path="url(#clip070)" d="M161.251 449.511 L183.473 449.511 L183.473 451.502 L170.927 484.071 L166.042 484.071 L177.848 453.446 L161.251 453.446 L161.251 449.511 Z" fill="#000000" fill-rule="nonzero" fill-opacity="1"></path><path clip-path="url(#clip070)" d="M192.639 449.511 L210.996 449.511 L210.996 453.446 L196.922 453.446 L196.922 461.918 Q197.94 461.571 198.959 461.409 Q199.977 461.224 200.996 461.224 Q206.783 461.224 210.162 464.395 Q213.542 467.567 213.542 472.983 Q213.542 478.562 210.07 481.664 Q206.598 484.742 200.278 484.742 Q198.102 484.742 195.834 484.372 Q193.588 484.002 191.181 483.261 L191.181 478.562 Q193.264 479.696 195.487 480.252 Q197.709 480.807 200.186 480.807 Q204.19 480.807 206.528 478.701 Q208.866 476.594 208.866 472.983 Q208.866 469.372 206.528 467.266 Q204.19 465.159 200.186 465.159 Q198.311 465.159 196.436 465.576 Q194.584 465.993 192.639 466.872 L192.639 449.511 Z" fill="#000000" fill-rule="nonzero" fill-opacity="1"></path><path clip-path="url(#clip070)" d="M117.015 173.601 L124.654 173.601 L124.654 147.236 L116.343 148.902 L116.343 144.643 L124.607 142.976 L129.283 142.976 L129.283 173.601 L136.922 173.601 L136.922 177.536 L117.015 177.536 L117.015 173.601 Z" fill="#000000" fill-rule="nonzero" fill-opacity="1"></path><path clip-path="url(#clip070)" d="M146.366 171.657 L151.251 171.657 L151.251 177.536 L146.366 177.536 L146.366 171.657 Z" fill="#000000" fill-rule="nonzero" fill-opacity="1"></path><path clip-path="url(#clip070)" d="M171.436 146.055 Q167.825 146.055 165.996 149.62 Q164.19 153.161 164.19 160.291 Q164.19 167.397 165.996 170.962 Q167.825 174.504 171.436 174.504 Q175.07 174.504 176.876 170.962 Q178.704 167.397 178.704 160.291 Q178.704 153.161 176.876 149.62 Q175.07 146.055 171.436 146.055 M171.436 142.351 Q177.246 142.351 180.301 146.958 Q183.38 151.541 183.38 160.291 Q183.38 169.018 180.301 173.624 Q177.246 178.208 171.436 178.208 Q165.626 178.208 162.547 173.624 Q159.491 169.018 159.491 160.291 Q159.491 151.541 162.547 146.958 Q165.626 142.351 171.436 142.351 Z" fill="#000000" fill-rule="nonzero" fill-opacity="1"></path><path clip-path="url(#clip070)" d="M201.598 146.055 Q197.987 146.055 196.158 149.62 Q194.352 153.161 194.352 160.291 Q194.352 167.397 196.158 170.962 Q197.987 174.504 201.598 174.504 Q205.232 174.504 207.037 170.962 Q208.866 167.397 208.866 160.291 Q208.866 153.161 207.037 149.62 Q205.232 146.055 201.598 146.055 M201.598 142.351 Q207.408 142.351 210.463 146.958 Q213.542 151.541 213.542 160.291 Q213.542 169.018 210.463 173.624 Q207.408 178.208 201.598 178.208 Q195.787 178.208 192.709 173.624 Q189.653 169.018 189.653 160.291 Q189.653 151.541 192.709 146.958 Q195.787 142.351 201.598 142.351 Z" fill="#000000" fill-rule="nonzero" fill-opacity="1"></path><path clip-path="url(#clip070)" d="M49.9359 833.132 L28.3562 833.132 L28.3562 827.275 L49.7131 827.275 Q54.7739 827.275 57.3202 825.302 Q59.8346 823.329 59.8346 819.382 Q59.8346 814.639 56.8109 811.902 Q53.7872 809.133 48.5673 809.133 L28.3562 809.133 L28.3562 803.277 L64.0042 803.277 L64.0042 809.133 L58.5296 809.133 Q61.7762 811.266 63.3676 814.098 Q64.9272 816.899 64.9272 820.623 Q64.9272 826.766 61.1078 829.949 Q57.2883 833.132 49.9359 833.132 M27.4968 818.395 L27.4968 818.395 Z" fill="#000000" fill-rule="nonzero" fill-opacity="1"></path><path clip-path="url(#clip070)" d="M14.5426 777.145 Q21.8632 781.41 29.0246 783.479 Q36.186 785.548 43.5384 785.548 Q50.8908 785.548 58.1159 783.479 Q65.3091 781.379 72.5979 777.145 L72.5979 782.238 Q65.1182 787.012 57.8931 789.399 Q50.668 791.755 43.5384 791.755 Q36.4406 791.755 29.2474 789.399 Q22.0542 787.044 14.5426 782.238 L14.5426 777.145 Z" fill="#000000" fill-rule="nonzero" fill-opacity="1"></path><path clip-path="url(#clip070)" d="M28.3562 736.15 L45.7028 749.041 L64.0042 735.482 L64.0042 742.389 L49.9996 752.765 L64.0042 763.141 L64.0042 770.048 L45.3526 756.202 L28.3562 768.87 L28.3562 761.963 L41.0558 752.51 L28.3562 743.057 L28.3562 736.15 Z" fill="#000000" fill-rule="nonzero" fill-opacity="1"></path><path clip-path="url(#clip070)" d="M14.5426 728.129 L14.5426 723.037 Q22.0542 718.263 29.2474 715.907 Q36.4406 713.52 43.5384 713.52 Q50.668 713.52 57.8931 715.907 Q65.1182 718.263 72.5979 723.037 L72.5979 728.129 Q65.3091 723.896 58.1159 721.827 Q50.8908 719.727 43.5384 719.727 Q36.186 719.727 29.0246 721.827 Q21.8632 723.896 14.5426 728.129 Z" fill="#000000" fill-rule="nonzero" fill-opacity="1"></path><path clip-path="url(#clip070)" d="M674.413 12.096 L712.654 12.096 L712.654 18.9825 L682.596 18.9825 L682.596 36.8875 L711.398 36.8875 L711.398 43.7741 L682.596 43.7741 L682.596 65.6895 L713.383 65.6895 L713.383 72.576 L674.413 72.576 L674.413 12.096 Z" fill="#000000" fill-rule="nonzero" fill-opacity="1"></path><path clip-path="url(#clip070)" d="M726.832 12.096 L761.589 12.096 L761.589 18.9825 L735.015 18.9825 L735.015 36.8065 L758.996 36.8065 L758.996 43.6931 L735.015 43.6931 L735.015 72.576 L726.832 72.576 L726.832 12.096 Z" fill="#000000" fill-rule="nonzero" fill-opacity="1"></path><path clip-path="url(#clip070)" d="M815.79 63.9476 L815.79 47.7034 L802.422 47.7034 L802.422 40.9789 L823.892 40.9789 L823.892 66.9452 Q819.152 70.3075 813.44 72.0494 Q807.729 73.7508 801.247 73.7508 Q787.069 73.7508 779.048 65.4869 Q771.068 57.1826 771.068 42.3968 Q771.068 27.5705 779.048 19.3066 Q787.069 11.0023 801.247 11.0023 Q807.161 11.0023 812.468 12.4606 Q817.815 13.9189 822.312 16.7545 L822.312 25.464 Q817.775 21.6156 812.671 19.6712 Q807.567 17.7268 801.936 17.7268 Q790.836 17.7268 785.246 23.9246 Q779.696 30.1225 779.696 42.3968 Q779.696 54.6305 785.246 60.8284 Q790.836 67.0263 801.936 67.0263 Q806.27 67.0263 809.673 66.2971 Q813.076 65.5274 815.79 63.9476 Z" fill="#000000" fill-rule="nonzero" fill-opacity="1"></path><path clip-path="url(#clip070)" d="M901.467 14.0809 L901.467 22.0612 Q896.808 19.8332 892.676 18.7395 Q888.544 17.6457 884.696 17.6457 Q878.012 17.6457 874.366 20.2383 Q870.761 22.8309 870.761 27.611 Q870.761 31.6214 873.151 33.6873 Q875.581 35.7128 882.306 36.9686 L887.248 37.9813 Q896.403 39.7232 900.737 44.1387 Q905.112 48.5136 905.112 55.8863 Q905.112 64.6767 899.198 69.2137 Q893.324 73.7508 881.941 73.7508 Q877.647 73.7508 872.786 72.7785 Q867.966 71.8063 862.78 69.9024 L862.78 61.4765 Q867.763 64.2716 872.543 65.6895 Q877.323 67.1073 881.941 67.1073 Q888.949 67.1073 892.757 64.3527 Q896.565 61.598 896.565 56.4939 Q896.565 52.0379 893.81 49.5264 Q891.096 47.0148 884.858 45.759 L879.875 44.7868 Q870.72 42.9639 866.629 39.075 Q862.537 35.1862 862.537 28.2591 Q862.537 20.2383 868.168 15.6203 Q873.839 11.0023 883.764 11.0023 Q888.018 11.0023 892.433 11.7719 Q896.848 12.5416 901.467 14.0809 Z" fill="#000000" fill-rule="nonzero" fill-opacity="1"></path><path clip-path="url(#clip070)" d="M935.13 32.4315 Q929.134 32.4315 925.65 37.1306 Q922.167 41.7891 922.167 49.9314 Q922.167 58.0738 925.61 62.7728 Q929.094 67.4314 935.13 67.4314 Q941.084 67.4314 944.568 62.7323 Q948.052 58.0333 948.052 49.9314 Q948.052 41.8701 944.568 37.1711 Q941.084 32.4315 935.13 32.4315 M935.13 26.1121 Q944.852 26.1121 950.401 32.4315 Q955.951 38.7509 955.951 49.9314 Q955.951 61.0714 950.401 67.4314 Q944.852 73.7508 935.13 73.7508 Q925.367 73.7508 919.817 67.4314 Q914.308 61.0714 914.308 49.9314 Q914.308 38.7509 919.817 32.4315 Q925.367 26.1121 935.13 26.1121 Z" fill="#000000" fill-rule="nonzero" fill-opacity="1"></path><path clip-path="url(#clip070)" d="M968.306 9.54393 L975.76 9.54393 L975.76 72.576 L968.306 72.576 L968.306 9.54393 Z" fill="#000000" fill-rule="nonzero" fill-opacity="1"></path><path clip-path="url(#clip070)" d="M990.586 54.671 L990.586 27.2059 L998.04 27.2059 L998.04 54.3874 Q998.04 60.8284 1000.55 64.0691 Q1003.06 67.2693 1008.09 67.2693 Q1014.12 67.2693 1017.61 63.421 Q1021.13 59.5726 1021.13 52.9291 L1021.13 27.2059 L1028.58 27.2059 L1028.58 72.576 L1021.13 72.576 L1021.13 65.6084 Q1018.42 69.7404 1014.81 71.7658 Q1011.25 73.7508 1006.51 73.7508 Q998.688 73.7508 994.637 68.8897 Q990.586 64.0286 990.586 54.671 M1009.34 26.1121 L1009.34 26.1121 Z" fill="#000000" fill-rule="nonzero" fill-opacity="1"></path><path clip-path="url(#clip070)" d="M1051.31 14.324 L1051.31 27.2059 L1066.66 27.2059 L1066.66 32.9987 L1051.31 32.9987 L1051.31 57.6282 Q1051.31 63.1779 1052.81 64.7578 Q1054.35 66.3376 1059.01 66.3376 L1066.66 66.3376 L1066.66 72.576 L1059.01 72.576 Q1050.38 72.576 1047.1 69.3758 Q1043.82 66.1351 1043.82 57.6282 L1043.82 32.9987 L1038.35 32.9987 L1038.35 27.2059 L1043.82 27.2059 L1043.82 14.324 L1051.31 14.324 Z" fill="#000000" fill-rule="nonzero" fill-opacity="1"></path><path clip-path="url(#clip070)" d="M1076.47 27.2059 L1083.92 27.2059 L1083.92 72.576 L1076.47 72.576 L1076.47 27.2059 M1076.47 9.54393 L1083.92 9.54393 L1083.92 18.9825 L1076.47 18.9825 L1076.47 9.54393 Z" fill="#000000" fill-rule="nonzero" fill-opacity="1"></path><path clip-path="url(#clip070)" d="M1117.1 32.4315 Q1111.1 32.4315 1107.62 37.1306 Q1104.13 41.7891 1104.13 49.9314 Q1104.13 58.0738 1107.58 62.7728 Q1111.06 67.4314 1117.1 67.4314 Q1123.05 67.4314 1126.53 62.7323 Q1130.02 58.0333 1130.02 49.9314 Q1130.02 41.8701 1126.53 37.1711 Q1123.05 32.4315 1117.1 32.4315 M1117.1 26.1121 Q1126.82 26.1121 1132.37 32.4315 Q1137.92 38.7509 1137.92 49.9314 Q1137.92 61.0714 1132.37 67.4314 Q1126.82 73.7508 1117.1 73.7508 Q1107.33 73.7508 1101.78 67.4314 Q1096.27 61.0714 1096.27 49.9314 Q1096.27 38.7509 1101.78 32.4315 Q1107.33 26.1121 1117.1 26.1121 Z" fill="#000000" fill-rule="nonzero" fill-opacity="1"></path><path clip-path="url(#clip070)" d="M1187.99 45.1919 L1187.99 72.576 L1180.53 72.576 L1180.53 45.4349 Q1180.53 38.994 1178.02 35.7938 Q1175.51 32.5936 1170.49 32.5936 Q1164.45 32.5936 1160.97 36.4419 Q1157.48 40.2903 1157.48 46.9338 L1157.48 72.576 L1149.99 72.576 L1149.99 27.2059 L1157.48 27.2059 L1157.48 34.2544 Q1160.16 30.163 1163.76 28.1376 Q1167.41 26.1121 1172.15 26.1121 Q1179.97 26.1121 1183.98 30.9732 Q1187.99 35.7938 1187.99 45.1919 Z" fill="#000000" fill-rule="nonzero" fill-opacity="1"></path><path clip-path="url(#clip070)" d="M1223.88 27.2059 L1231.78 27.2059 L1245.96 65.2844 L1260.13 27.2059 L1268.03 27.2059 L1251.02 72.576 L1240.89 72.576 L1223.88 27.2059 Z" fill="#000000" fill-rule="nonzero" fill-opacity="1"></path><path clip-path="url(#clip070)" d="M1307.25 28.5427 L1307.25 35.5912 Q1304.09 33.9709 1300.68 33.1607 Q1297.28 32.3505 1293.63 32.3505 Q1288.08 32.3505 1285.29 34.0519 Q1282.54 35.7533 1282.54 39.156 Q1282.54 41.7486 1284.52 43.2475 Q1286.5 44.7058 1292.5 46.0426 L1295.05 46.6097 Q1302.99 48.3111 1306.31 51.4303 Q1309.68 54.509 1309.68 60.0587 Q1309.68 66.3781 1304.65 70.0644 Q1299.67 73.7508 1290.92 73.7508 Q1287.27 73.7508 1283.3 73.0216 Q1279.38 72.3329 1275 70.9151 L1275 63.2184 Q1279.13 65.3654 1283.14 66.4591 Q1287.15 67.5124 1291.08 67.5124 Q1296.35 67.5124 1299.18 65.73 Q1302.02 63.9071 1302.02 60.6258 Q1302.02 57.5877 1299.95 55.9673 Q1297.93 54.3469 1291 52.8481 L1288.41 52.2405 Q1281.48 50.7821 1278.4 47.7845 Q1275.32 44.7463 1275.32 39.4801 Q1275.32 33.0797 1279.86 29.5959 Q1284.4 26.1121 1292.74 26.1121 Q1296.88 26.1121 1300.52 26.7198 Q1304.17 27.3274 1307.25 28.5427 Z" fill="#000000" fill-rule="nonzero" fill-opacity="1"></path><path clip-path="url(#clip070)" d="M1348.24 12.096 L1386.48 12.096 L1386.48 18.9825 L1356.42 18.9825 L1356.42 36.8875 L1385.23 36.8875 L1385.23 43.7741 L1356.42 43.7741 L1356.42 65.6895 L1387.21 65.6895 L1387.21 72.576 L1348.24 72.576 L1348.24 12.096 Z" fill="#000000" fill-rule="nonzero" fill-opacity="1"></path><path clip-path="url(#clip070)" d="M1438.05 27.2059 L1421.64 49.2833 L1438.9 72.576 L1430.11 72.576 L1416.9 54.752 L1403.7 72.576 L1394.91 72.576 L1412.53 48.8377 L1396.41 27.2059 L1405.2 27.2059 L1417.23 43.369 L1429.26 27.2059 L1438.05 27.2059 Z" fill="#000000" fill-rule="nonzero" fill-opacity="1"></path><path clip-path="url(#clip070)" d="M1470.05 49.7694 Q1461.02 49.7694 1457.53 51.8354 Q1454.05 53.9013 1454.05 58.8839 Q1454.05 62.8538 1456.64 65.2034 Q1459.28 67.5124 1463.77 67.5124 Q1469.97 67.5124 1473.7 63.1374 Q1477.46 58.7219 1477.46 51.4303 L1477.46 49.7694 L1470.05 49.7694 M1484.92 46.6907 L1484.92 72.576 L1477.46 72.576 L1477.46 65.6895 Q1474.91 69.8214 1471.1 71.8063 Q1467.3 73.7508 1461.79 73.7508 Q1454.82 73.7508 1450.69 69.8619 Q1446.6 65.9325 1446.6 59.3701 Q1446.6 51.7138 1451.7 47.825 Q1456.85 43.9361 1467.01 43.9361 L1477.46 43.9361 L1477.46 43.2069 Q1477.46 38.0623 1474.06 35.2672 Q1470.7 32.4315 1464.58 32.4315 Q1460.69 32.4315 1457.01 33.3632 Q1453.32 34.295 1449.92 36.1584 L1449.92 29.2718 Q1454.01 27.692 1457.86 26.9223 Q1461.71 26.1121 1465.35 26.1121 Q1475.2 26.1121 1480.06 31.2163 Q1484.92 36.3204 1484.92 46.6907 Z" fill="#000000" fill-rule="nonzero" fill-opacity="1"></path><path clip-path="url(#clip070)" d="M1532.92 28.9478 L1532.92 35.9153 Q1529.76 34.1734 1526.56 33.3227 Q1523.4 32.4315 1520.16 32.4315 Q1512.91 32.4315 1508.9 37.0496 Q1504.89 41.6271 1504.89 49.9314 Q1504.89 58.2358 1508.9 62.8538 Q1512.91 67.4314 1520.16 67.4314 Q1523.4 67.4314 1526.56 66.5807 Q1529.76 65.6895 1532.92 63.9476 L1532.92 70.8341 Q1529.8 72.2924 1526.44 73.0216 Q1523.12 73.7508 1519.35 73.7508 Q1509.1 73.7508 1503.07 67.3098 Q1497.03 60.8689 1497.03 49.9314 Q1497.03 38.832 1503.11 32.472 Q1509.22 26.1121 1519.84 26.1121 Q1523.28 26.1121 1526.56 26.8413 Q1529.84 27.5299 1532.92 28.9478 Z" fill="#000000" fill-rule="nonzero" fill-opacity="1"></path><path clip-path="url(#clip070)" d="M1553.26 14.324 L1553.26 27.2059 L1568.61 27.2059 L1568.61 32.9987 L1553.26 32.9987 L1553.26 57.6282 Q1553.26 63.1779 1554.76 64.7578 Q1556.3 66.3376 1560.95 66.3376 L1568.61 66.3376 L1568.61 72.576 L1560.95 72.576 Q1552.33 72.576 1549.04 69.3758 Q1545.76 66.1351 1545.76 57.6282 L1545.76 32.9987 L1540.29 32.9987 L1540.29 27.2059 L1545.76 27.2059 L1545.76 14.324 L1553.26 14.324 Z" fill="#000000" fill-rule="nonzero" fill-opacity="1"></path><path clip-path="url(#clip070)" d="M1641.36 14.0809 L1641.36 22.0612 Q1636.71 19.8332 1632.57 18.7395 Q1628.44 17.6457 1624.59 17.6457 Q1617.91 17.6457 1614.26 20.2383 Q1610.66 22.8309 1610.66 27.611 Q1610.66 31.6214 1613.05 33.6873 Q1615.48 35.7128 1622.2 36.9686 L1627.15 37.9813 Q1636.3 39.7232 1640.63 44.1387 Q1645.01 48.5136 1645.01 55.8863 Q1645.01 64.6767 1639.1 69.2137 Q1633.22 73.7508 1621.84 73.7508 Q1617.54 73.7508 1612.68 72.7785 Q1607.86 71.8063 1602.68 69.9024 L1602.68 61.4765 Q1607.66 64.2716 1612.44 65.6895 Q1617.22 67.1073 1621.84 67.1073 Q1628.85 67.1073 1632.65 64.3527 Q1636.46 61.598 1636.46 56.4939 Q1636.46 52.0379 1633.71 49.5264 Q1630.99 47.0148 1624.76 45.759 L1619.77 44.7868 Q1610.62 42.9639 1606.53 39.075 Q1602.43 35.1862 1602.43 28.2591 Q1602.43 20.2383 1608.07 15.6203 Q1613.74 11.0023 1623.66 11.0023 Q1627.92 11.0023 1632.33 11.7719 Q1636.75 12.5416 1641.36 14.0809 Z" fill="#000000" fill-rule="nonzero" fill-opacity="1"></path><path clip-path="url(#clip070)" d="M1675.03 32.4315 Q1669.03 32.4315 1665.55 37.1306 Q1662.06 41.7891 1662.06 49.9314 Q1662.06 58.0738 1665.51 62.7728 Q1668.99 67.4314 1675.03 67.4314 Q1680.98 67.4314 1684.47 62.7323 Q1687.95 58.0333 1687.95 49.9314 Q1687.95 41.8701 1684.47 37.1711 Q1680.98 32.4315 1675.03 32.4315 M1675.03 26.1121 Q1684.75 26.1121 1690.3 32.4315 Q1695.85 38.7509 1695.85 49.9314 Q1695.85 61.0714 1690.3 67.4314 Q1684.75 73.7508 1675.03 73.7508 Q1665.26 73.7508 1659.71 67.4314 Q1654.21 61.0714 1654.21 49.9314 Q1654.21 38.7509 1659.71 32.4315 Q1665.26 26.1121 1675.03 26.1121 Z" fill="#000000" fill-rule="nonzero" fill-opacity="1"></path><path clip-path="url(#clip070)" d="M1708.2 9.54393 L1715.66 9.54393 L1715.66 72.576 L1708.2 72.576 L1708.2 9.54393 Z" fill="#000000" fill-rule="nonzero" fill-opacity="1"></path><path clip-path="url(#clip070)" d="M1730.48 54.671 L1730.48 27.2059 L1737.94 27.2059 L1737.94 54.3874 Q1737.94 60.8284 1740.45 64.0691 Q1742.96 67.2693 1747.98 67.2693 Q1754.02 67.2693 1757.5 63.421 Q1761.03 59.5726 1761.03 52.9291 L1761.03 27.2059 L1768.48 27.2059 L1768.48 72.576 L1761.03 72.576 L1761.03 65.6084 Q1758.31 69.7404 1754.71 71.7658 Q1751.14 73.7508 1746.4 73.7508 Q1738.59 73.7508 1734.53 68.8897 Q1730.48 64.0286 1730.48 54.671 M1749.24 26.1121 L1749.24 26.1121 Z" fill="#000000" fill-rule="nonzero" fill-opacity="1"></path><path clip-path="url(#clip070)" d="M1791.21 14.324 L1791.21 27.2059 L1806.56 27.2059 L1806.56 32.9987 L1791.21 32.9987 L1791.21 57.6282 Q1791.21 63.1779 1792.71 64.7578 Q1794.25 66.3376 1798.9 66.3376 L1806.56 66.3376 L1806.56 72.576 L1798.9 72.576 Q1790.28 72.576 1786.99 69.3758 Q1783.71 66.1351 1783.71 57.6282 L1783.71 32.9987 L1778.24 32.9987 L1778.24 27.2059 L1783.71 27.2059 L1783.71 14.324 L1791.21 14.324 Z" fill="#000000" fill-rule="nonzero" fill-opacity="1"></path><path clip-path="url(#clip070)" d="M1816.36 27.2059 L1823.82 27.2059 L1823.82 72.576 L1816.36 72.576 L1816.36 27.2059 M1816.36 9.54393 L1823.82 9.54393 L1823.82 18.9825 L1816.36 18.9825 L1816.36 9.54393 Z" fill="#000000" fill-rule="nonzero" fill-opacity="1"></path><path clip-path="url(#clip070)" d="M1856.99 32.4315 Q1851 32.4315 1847.51 37.1306 Q1844.03 41.7891 1844.03 49.9314 Q1844.03 58.0738 1847.47 62.7728 Q1850.96 67.4314 1856.99 67.4314 Q1862.95 67.4314 1866.43 62.7323 Q1869.92 58.0333 1869.92 49.9314 Q1869.92 41.8701 1866.43 37.1711 Q1862.95 32.4315 1856.99 32.4315 M1856.99 26.1121 Q1866.72 26.1121 1872.27 32.4315 Q1877.82 38.7509 1877.82 49.9314 Q1877.82 61.0714 1872.27 67.4314 Q1866.72 73.7508 1856.99 73.7508 Q1847.23 73.7508 1841.68 67.4314 Q1836.17 61.0714 1836.17 49.9314 Q1836.17 38.7509 1841.68 32.4315 Q1847.23 26.1121 1856.99 26.1121 Z" fill="#000000" fill-rule="nonzero" fill-opacity="1"></path><path clip-path="url(#clip070)" d="M1927.88 45.1919 L1927.88 72.576 L1920.43 72.576 L1920.43 45.4349 Q1920.43 38.994 1917.92 35.7938 Q1915.41 32.5936 1910.38 32.5936 Q1904.35 32.5936 1900.87 36.4419 Q1897.38 40.2903 1897.38 46.9338 L1897.38 72.576 L1889.89 72.576 L1889.89 27.2059 L1897.38 27.2059 L1897.38 34.2544 Q1900.05 30.163 1903.66 28.1376 Q1907.31 26.1121 1912.05 26.1121 Q1919.86 26.1121 1923.87 30.9732 Q1927.88 35.7938 1927.88 45.1919 Z" fill="#000000" fill-rule="nonzero" fill-opacity="1"></path><polyline clip-path="url(#clip072)" style="stroke:#009af9; stroke-linecap:round; stroke-linejoin:round; stroke-width:4; stroke-opacity:1; fill:none" points="309.067,1386.4 328.909,1380.01 348.75,1373.62 368.592,1367.22 388.434,1360.76 408.275,1354.17 428.117,1347.39 447.958,1340.44 467.8,1333.37 487.642,1326.2 507.483,1318.91 527.325,1311.5 547.167,1303.96 567.008,1296.29 586.85,1288.51 606.692,1280.6 626.533,1272.57 646.375,1264.41 666.216,1256.14 686.058,1247.74 705.9,1239.22 725.741,1230.57 745.583,1221.81 765.425,1212.92 785.266,1203.91 805.108,1194.77 824.95,1185.51 844.791,1176.14 864.633,1166.63 884.475,1157.01 904.316,1147.26 924.158,1137.39 943.999,1127.4 963.841,1117.28 983.683,1107.05 1003.52,1096.68 1023.37,1086.2 1043.21,1075.6 1063.05,1064.87 1082.89,1054.02 1102.73,1043.04 1122.57,1031.95 1142.42,1020.73 1162.26,1009.39 1182.1,997.923 1201.94,986.336 1221.78,974.627 1241.62,962.795 1261.47,950.841 1281.31,938.764 1301.15,926.564 1320.99,914.242 1340.83,901.797 1360.67,889.229 1380.52,876.539 1400.36,863.726 1420.2,850.791 1440.04,837.733 1459.88,824.552 1479.72,811.249 1499.57,797.823 1519.41,784.275 1539.25,770.604 1559.09,756.81 1578.93,742.894 1598.77,728.855 1618.62,714.694 1638.46,700.409 1658.3,686.003 1678.14,671.473 1697.98,656.821 1717.82,642.047 1737.67,627.15 1757.51,612.13 1777.35,596.987 1797.19,581.722 1817.03,566.335 1836.87,550.825 1856.71,535.192 1876.56,519.436 1896.4,503.558 1916.24,487.558 1936.08,471.434 1955.92,455.188 1975.76,438.819 1995.61,422.328 2015.45,405.717 2035.29,388.98 2055.13,372.116 2074.97,355.129 2094.81,338.031 2114.66,320.828 2134.5,303.482 2154.34,285.954 2174.18,268.295 2194.02,250.649 2213.86,233.097 2233.71,215.431 2253.55,197.387 2273.39,178.936 2293.23,160.256 "></polyline>
<polyline clip-path="url(#clip072)" style="stroke:#e26f46; stroke-linecap:round; stroke-linejoin:round; stroke-width:4; stroke-opacity:1; fill:none" stroke-dasharray="16, 10" points="309.067,1386.4 328.909,1380.2 348.75,1373.89 368.592,1367.45 388.434,1360.89 408.275,1354.21 428.117,1347.4 447.958,1340.48 467.8,1333.43 487.642,1326.25 507.483,1318.96 527.325,1311.54 547.167,1304 567.008,1296.34 586.85,1288.55 606.692,1280.64 626.533,1272.61 646.375,1264.46 666.216,1256.18 686.058,1247.78 705.9,1239.26 725.741,1230.61 745.583,1221.85 765.425,1212.96 785.266,1203.95 805.108,1194.81 824.95,1185.55 844.791,1176.17 864.633,1166.67 884.475,1157.05 904.316,1147.3 924.158,1137.43 943.999,1127.44 963.841,1117.32 983.683,1107.08 1003.52,1096.72 1023.37,1086.24 1043.21,1075.63 1063.05,1064.9 1082.89,1054.05 1102.73,1043.08 1122.57,1031.98 1142.42,1020.76 1162.26,1009.42 1182.1,997.955 1201.94,986.368 1221.78,974.658 1241.62,962.826 1261.47,950.871 1281.31,938.793 1301.15,926.593 1320.99,914.271 1340.83,901.825 1360.67,889.257 1380.52,876.567 1400.36,863.754 1420.2,850.818 1440.04,837.76 1459.88,824.579 1479.72,811.275 1499.57,797.849 1519.41,784.3 1539.25,770.628 1559.09,756.834 1578.93,742.918 1598.77,728.878 1618.62,714.717 1638.46,700.432 1658.3,686.025 1678.14,671.495 1697.98,656.843 1717.82,642.068 1737.67,627.17 1757.51,612.15 1777.35,597.007 1797.19,581.742 1817.03,566.354 1836.87,550.843 1856.71,535.21 1876.56,519.454 1896.4,503.575 1916.24,487.574 1936.08,471.45 1955.92,455.204 1975.76,438.835 1995.61,422.344 2015.45,405.729 2035.29,388.993 2055.13,372.133 2074.97,355.151 2094.81,338.047 2114.66,320.819 2134.5,303.469 2154.34,285.997 2174.18,268.402 2194.02,250.684 2213.86,232.844 2233.71,214.881 2253.55,196.795 2273.39,178.587 2293.23,160.256 "></polyline>
<circle clip-path="url(#clip072)" cx="309.067" cy="1386.4" r="14.4" fill="#ff0000" fill-rule="evenodd" fill-opacity="1" stroke="#000000" stroke-opacity="1" stroke-width="3.2"></circle>
<circle clip-path="url(#clip072)" cx="358.671" cy="1370.44" r="14.4" fill="#ff0000" fill-rule="evenodd" fill-opacity="1" stroke="#000000" stroke-opacity="1" stroke-width="3.2"></circle>
<circle clip-path="url(#clip072)" cx="408.275" cy="1354.39" r="14.4" fill="#ff0000" fill-rule="evenodd" fill-opacity="1" stroke="#000000" stroke-opacity="1" stroke-width="3.2"></circle>
<circle clip-path="url(#clip072)" cx="457.879" cy="1337.02" r="14.4" fill="#ff0000" fill-rule="evenodd" fill-opacity="1" stroke="#000000" stroke-opacity="1" stroke-width="3.2"></circle>
<circle clip-path="url(#clip072)" cx="507.483" cy="1319.05" r="14.4" fill="#ff0000" fill-rule="evenodd" fill-opacity="1" stroke="#000000" stroke-opacity="1" stroke-width="3.2"></circle>
<circle clip-path="url(#clip072)" cx="557.087" cy="1300.26" r="14.4" fill="#ff0000" fill-rule="evenodd" fill-opacity="1" stroke="#000000" stroke-opacity="1" stroke-width="3.2"></circle>
<circle clip-path="url(#clip072)" cx="606.692" cy="1280.73" r="14.4" fill="#ff0000" fill-rule="evenodd" fill-opacity="1" stroke="#000000" stroke-opacity="1" stroke-width="3.2"></circle>
<circle clip-path="url(#clip072)" cx="656.296" cy="1260.42" r="14.4" fill="#ff0000" fill-rule="evenodd" fill-opacity="1" stroke="#000000" stroke-opacity="1" stroke-width="3.2"></circle>
<circle clip-path="url(#clip072)" cx="705.9" cy="1239.35" r="14.4" fill="#ff0000" fill-rule="evenodd" fill-opacity="1" stroke="#000000" stroke-opacity="1" stroke-width="3.2"></circle>
<circle clip-path="url(#clip072)" cx="755.504" cy="1217.51" r="14.4" fill="#ff0000" fill-rule="evenodd" fill-opacity="1" stroke="#000000" stroke-opacity="1" stroke-width="3.2"></circle>
<circle clip-path="url(#clip072)" cx="805.108" cy="1194.9" r="14.4" fill="#ff0000" fill-rule="evenodd" fill-opacity="1" stroke="#000000" stroke-opacity="1" stroke-width="3.2"></circle>
<circle clip-path="url(#clip072)" cx="854.712" cy="1171.53" r="14.4" fill="#ff0000" fill-rule="evenodd" fill-opacity="1" stroke="#000000" stroke-opacity="1" stroke-width="3.2"></circle>
<circle clip-path="url(#clip072)" cx="904.316" cy="1147.39" r="14.4" fill="#ff0000" fill-rule="evenodd" fill-opacity="1" stroke="#000000" stroke-opacity="1" stroke-width="3.2"></circle>
<circle clip-path="url(#clip072)" cx="953.92" cy="1122.48" r="14.4" fill="#ff0000" fill-rule="evenodd" fill-opacity="1" stroke="#000000" stroke-opacity="1" stroke-width="3.2"></circle>
<circle clip-path="url(#clip072)" cx="1003.52" cy="1096.81" r="14.4" fill="#ff0000" fill-rule="evenodd" fill-opacity="1" stroke="#000000" stroke-opacity="1" stroke-width="3.2"></circle>
<circle clip-path="url(#clip072)" cx="1053.13" cy="1070.37" r="14.4" fill="#ff0000" fill-rule="evenodd" fill-opacity="1" stroke="#000000" stroke-opacity="1" stroke-width="3.2"></circle>
<circle clip-path="url(#clip072)" cx="1102.73" cy="1043.17" r="14.4" fill="#ff0000" fill-rule="evenodd" fill-opacity="1" stroke="#000000" stroke-opacity="1" stroke-width="3.2"></circle>
<circle clip-path="url(#clip072)" cx="1152.34" cy="1015.2" r="14.4" fill="#ff0000" fill-rule="evenodd" fill-opacity="1" stroke="#000000" stroke-opacity="1" stroke-width="3.2"></circle>
<circle clip-path="url(#clip072)" cx="1201.94" cy="986.464" r="14.4" fill="#ff0000" fill-rule="evenodd" fill-opacity="1" stroke="#000000" stroke-opacity="1" stroke-width="3.2"></circle>
<circle clip-path="url(#clip072)" cx="1251.54" cy="956.961" r="14.4" fill="#ff0000" fill-rule="evenodd" fill-opacity="1" stroke="#000000" stroke-opacity="1" stroke-width="3.2"></circle>
<circle clip-path="url(#clip072)" cx="1301.15" cy="926.692" r="14.4" fill="#ff0000" fill-rule="evenodd" fill-opacity="1" stroke="#000000" stroke-opacity="1" stroke-width="3.2"></circle>
<circle clip-path="url(#clip072)" cx="1350.75" cy="895.656" r="14.4" fill="#ff0000" fill-rule="evenodd" fill-opacity="1" stroke="#000000" stroke-opacity="1" stroke-width="3.2"></circle>
<circle clip-path="url(#clip072)" cx="1400.36" cy="863.854" r="14.4" fill="#ff0000" fill-rule="evenodd" fill-opacity="1" stroke="#000000" stroke-opacity="1" stroke-width="3.2"></circle>
<circle clip-path="url(#clip072)" cx="1449.96" cy="831.286" r="14.4" fill="#ff0000" fill-rule="evenodd" fill-opacity="1" stroke="#000000" stroke-opacity="1" stroke-width="3.2"></circle>
<circle clip-path="url(#clip072)" cx="1499.57" cy="797.951" r="14.4" fill="#ff0000" fill-rule="evenodd" fill-opacity="1" stroke="#000000" stroke-opacity="1" stroke-width="3.2"></circle>
<circle clip-path="url(#clip072)" cx="1549.17" cy="763.85" r="14.4" fill="#ff0000" fill-rule="evenodd" fill-opacity="1" stroke="#000000" stroke-opacity="1" stroke-width="3.2"></circle>
<circle clip-path="url(#clip072)" cx="1598.77" cy="728.983" r="14.4" fill="#ff0000" fill-rule="evenodd" fill-opacity="1" stroke="#000000" stroke-opacity="1" stroke-width="3.2"></circle>
<circle clip-path="url(#clip072)" cx="1648.38" cy="693.349" r="14.4" fill="#ff0000" fill-rule="evenodd" fill-opacity="1" stroke="#000000" stroke-opacity="1" stroke-width="3.2"></circle>
<circle clip-path="url(#clip072)" cx="1697.98" cy="656.949" r="14.4" fill="#ff0000" fill-rule="evenodd" fill-opacity="1" stroke="#000000" stroke-opacity="1" stroke-width="3.2"></circle>
<circle clip-path="url(#clip072)" cx="1747.59" cy="619.783" r="14.4" fill="#ff0000" fill-rule="evenodd" fill-opacity="1" stroke="#000000" stroke-opacity="1" stroke-width="3.2"></circle>
<circle clip-path="url(#clip072)" cx="1797.19" cy="581.85" r="14.4" fill="#ff0000" fill-rule="evenodd" fill-opacity="1" stroke="#000000" stroke-opacity="1" stroke-width="3.2"></circle>
<circle clip-path="url(#clip072)" cx="1846.79" cy="543.151" r="14.4" fill="#ff0000" fill-rule="evenodd" fill-opacity="1" stroke="#000000" stroke-opacity="1" stroke-width="3.2"></circle>
<circle clip-path="url(#clip072)" cx="1896.4" cy="503.686" r="14.4" fill="#ff0000" fill-rule="evenodd" fill-opacity="1" stroke="#000000" stroke-opacity="1" stroke-width="3.2"></circle>
<circle clip-path="url(#clip072)" cx="1946" cy="463.455" r="14.4" fill="#ff0000" fill-rule="evenodd" fill-opacity="1" stroke="#000000" stroke-opacity="1" stroke-width="3.2"></circle>
<circle clip-path="url(#clip072)" cx="1995.61" cy="422.453" r="14.4" fill="#ff0000" fill-rule="evenodd" fill-opacity="1" stroke="#000000" stroke-opacity="1" stroke-width="3.2"></circle>
<circle clip-path="url(#clip072)" cx="2045.21" cy="380.701" r="14.4" fill="#ff0000" fill-rule="evenodd" fill-opacity="1" stroke="#000000" stroke-opacity="1" stroke-width="3.2"></circle>
<circle clip-path="url(#clip072)" cx="2094.81" cy="338.132" r="14.4" fill="#ff0000" fill-rule="evenodd" fill-opacity="1" stroke="#000000" stroke-opacity="1" stroke-width="3.2"></circle>
<circle clip-path="url(#clip072)" cx="2144.42" cy="294.961" r="14.4" fill="#ff0000" fill-rule="evenodd" fill-opacity="1" stroke="#000000" stroke-opacity="1" stroke-width="3.2"></circle>
<circle clip-path="url(#clip072)" cx="2194.02" cy="250.479" r="14.4" fill="#ff0000" fill-rule="evenodd" fill-opacity="1" stroke="#000000" stroke-opacity="1" stroke-width="3.2"></circle>
<circle clip-path="url(#clip072)" cx="2243.63" cy="207.02" r="14.4" fill="#ff0000" fill-rule="evenodd" fill-opacity="1" stroke="#000000" stroke-opacity="1" stroke-width="3.2"></circle>
<circle clip-path="url(#clip072)" cx="2293.23" cy="160.256" r="14.4" fill="#ff0000" fill-rule="evenodd" fill-opacity="1" stroke="#000000" stroke-opacity="1" stroke-width="3.2"></circle>
<path clip-path="url(#clip070)" d="M319.649 374.156 L934.76 374.156 L934.76 166.796 L319.649 166.796  Z" fill="#ffffff" fill-rule="evenodd" fill-opacity="1"></path>
<polyline clip-path="url(#clip070)" style="stroke:#000000; stroke-linecap:round; stroke-linejoin:round; stroke-width:4; stroke-opacity:1; fill:none" points="319.649,374.156 934.76,374.156 934.76,166.796 319.649,166.796 319.649,374.156 "></polyline>
<polyline clip-path="url(#clip070)" style="stroke:#009af9; stroke-linecap:round; stroke-linejoin:round; stroke-width:4; stroke-opacity:1; fill:none" points="343.018,218.636 483.232,218.636 "></polyline>
<path clip-path="url(#clip070)" d="M506.602 201.356 L528.453 201.356 L528.453 205.291 L511.277 205.291 L511.277 215.522 L527.736 215.522 L527.736 219.457 L511.277 219.457 L511.277 231.981 L528.87 231.981 L528.87 235.916 L506.602 235.916 L506.602 201.356 Z" fill="#000000" fill-rule="nonzero" fill-opacity="1"></path><path clip-path="url(#clip070)" d="M536.555 201.356 L556.416 201.356 L556.416 205.291 L541.231 205.291 L541.231 215.476 L554.935 215.476 L554.935 219.411 L541.231 219.411 L541.231 235.916 L536.555 235.916 L536.555 201.356 Z" fill="#000000" fill-rule="nonzero" fill-opacity="1"></path><path clip-path="url(#clip070)" d="M587.388 230.985 L587.388 221.703 L579.749 221.703 L579.749 217.86 L592.018 217.86 L592.018 232.698 Q589.309 234.619 586.046 235.615 Q582.782 236.587 579.078 236.587 Q570.976 236.587 566.393 231.865 Q561.833 227.119 561.833 218.67 Q561.833 210.198 566.393 205.476 Q570.976 200.731 579.078 200.731 Q582.458 200.731 585.49 201.564 Q588.546 202.397 591.115 204.018 L591.115 208.995 Q588.522 206.796 585.606 205.684 Q582.689 204.573 579.471 204.573 Q573.129 204.573 569.935 208.115 Q566.763 211.657 566.763 218.67 Q566.763 225.661 569.935 229.203 Q573.129 232.744 579.471 232.744 Q581.948 232.744 583.893 232.328 Q585.837 231.888 587.388 230.985 Z" fill="#000000" fill-rule="nonzero" fill-opacity="1"></path><polyline clip-path="url(#clip070)" style="stroke:#e26f46; stroke-linecap:round; stroke-linejoin:round; stroke-width:4; stroke-opacity:1; fill:none" stroke-dasharray="16, 10" points="343.018,270.476 483.232,270.476 "></polyline>
<path clip-path="url(#clip070)" d="M506.602 253.196 L528.453 253.196 L528.453 257.131 L511.277 257.131 L511.277 267.362 L527.736 267.362 L527.736 271.297 L511.277 271.297 L511.277 283.821 L528.87 283.821 L528.87 287.756 L506.602 287.756 L506.602 253.196 Z" fill="#000000" fill-rule="nonzero" fill-opacity="1"></path><path clip-path="url(#clip070)" d="M557.921 261.83 L548.546 274.446 L558.407 287.756 L553.384 287.756 L545.837 277.571 L538.291 287.756 L533.268 287.756 L543.337 274.191 L534.125 261.83 L539.148 261.83 L546.023 271.066 L552.898 261.83 L557.921 261.83 Z" fill="#000000" fill-rule="nonzero" fill-opacity="1"></path><path clip-path="url(#clip070)" d="M576.208 274.723 Q571.046 274.723 569.055 275.904 Q567.064 277.084 567.064 279.932 Q567.064 282.2 568.546 283.543 Q570.05 284.862 572.62 284.862 Q576.161 284.862 578.291 282.362 Q580.444 279.839 580.444 275.672 L580.444 274.723 L576.208 274.723 M584.703 272.964 L584.703 287.756 L580.444 287.756 L580.444 283.821 Q578.985 286.182 576.809 287.316 Q574.634 288.427 571.485 288.427 Q567.504 288.427 565.143 286.205 Q562.805 283.959 562.805 280.209 Q562.805 275.834 565.722 273.612 Q568.661 271.39 574.472 271.39 L580.444 271.39 L580.444 270.973 Q580.444 268.034 578.499 266.436 Q576.578 264.816 573.083 264.816 Q570.86 264.816 568.754 265.348 Q566.647 265.881 564.703 266.946 L564.703 263.01 Q567.041 262.108 569.24 261.668 Q571.439 261.205 573.522 261.205 Q579.147 261.205 581.925 264.122 Q584.703 267.038 584.703 272.964 Z" fill="#000000" fill-rule="nonzero" fill-opacity="1"></path><path clip-path="url(#clip070)" d="M612.133 262.825 L612.133 266.807 Q610.328 265.811 608.499 265.325 Q606.694 264.816 604.842 264.816 Q600.698 264.816 598.407 267.455 Q596.115 270.071 596.115 274.816 Q596.115 279.561 598.407 282.2 Q600.698 284.816 604.842 284.816 Q606.694 284.816 608.499 284.33 Q610.328 283.821 612.133 282.825 L612.133 286.76 Q610.351 287.594 608.43 288.01 Q606.532 288.427 604.379 288.427 Q598.522 288.427 595.073 284.746 Q591.624 281.066 591.624 274.816 Q591.624 268.473 595.096 264.839 Q598.592 261.205 604.657 261.205 Q606.624 261.205 608.499 261.622 Q610.374 262.015 612.133 262.825 Z" fill="#000000" fill-rule="nonzero" fill-opacity="1"></path><path clip-path="url(#clip070)" d="M623.754 254.469 L623.754 261.83 L632.527 261.83 L632.527 265.14 L623.754 265.14 L623.754 279.214 Q623.754 282.385 624.61 283.288 Q625.49 284.191 628.152 284.191 L632.527 284.191 L632.527 287.756 L628.152 287.756 Q623.221 287.756 621.346 285.927 Q619.471 284.075 619.471 279.214 L619.471 265.14 L616.346 265.14 L616.346 261.83 L619.471 261.83 L619.471 254.469 L623.754 254.469 Z" fill="#000000" fill-rule="nonzero" fill-opacity="1"></path><circle clip-path="url(#clip070)" cx="413.125" cy="322.316" r="20.48" fill="#ff0000" fill-rule="evenodd" fill-opacity="1" stroke="#000000" stroke-opacity="1" stroke-width="4.55111"></circle>
<path clip-path="url(#clip070)" d="M534.472 307.698 L534.472 312.628 Q532.111 310.429 529.425 309.341 Q526.763 308.253 523.754 308.253 Q517.828 308.253 514.68 311.888 Q511.532 315.499 511.532 322.35 Q511.532 329.179 514.68 332.813 Q517.828 336.424 523.754 336.424 Q526.763 336.424 529.425 335.336 Q532.111 334.249 534.472 332.049 L534.472 336.934 Q532.018 338.6 529.263 339.434 Q526.532 340.267 523.476 340.267 Q515.629 340.267 511.115 335.475 Q506.602 330.661 506.602 322.35 Q506.602 314.017 511.115 309.226 Q515.629 304.411 523.476 304.411 Q526.578 304.411 529.31 305.244 Q532.064 306.054 534.472 307.698 Z" fill="#000000" fill-rule="nonzero" fill-opacity="1"></path><path clip-path="url(#clip070)" d="M551.555 316.656 Q548.129 316.656 546.138 319.341 Q544.148 322.003 544.148 326.656 Q544.148 331.309 546.115 333.994 Q548.106 336.656 551.555 336.656 Q554.958 336.656 556.948 333.971 Q558.939 331.286 558.939 326.656 Q558.939 322.05 556.948 319.364 Q554.958 316.656 551.555 316.656 M551.555 313.045 Q557.11 313.045 560.282 316.656 Q563.453 320.267 563.453 326.656 Q563.453 333.022 560.282 336.656 Q557.11 340.267 551.555 340.267 Q545.976 340.267 542.805 336.656 Q539.657 333.022 539.657 326.656 Q539.657 320.267 542.805 316.656 Q545.976 313.045 551.555 313.045 Z" fill="#000000" fill-rule="nonzero" fill-opacity="1"></path><path clip-path="url(#clip070)" d="M590.698 318.647 Q592.295 315.776 594.518 314.411 Q596.74 313.045 599.749 313.045 Q603.8 313.045 605.999 315.892 Q608.198 318.716 608.198 323.948 L608.198 339.596 L603.916 339.596 L603.916 324.087 Q603.916 320.36 602.596 318.554 Q601.277 316.749 598.569 316.749 Q595.258 316.749 593.337 318.948 Q591.416 321.147 591.416 324.943 L591.416 339.596 L587.133 339.596 L587.133 324.087 Q587.133 320.337 585.814 318.554 Q584.495 316.749 581.74 316.749 Q578.476 316.749 576.555 318.971 Q574.634 321.17 574.634 324.943 L574.634 339.596 L570.351 339.596 L570.351 313.67 L574.634 313.67 L574.634 317.698 Q576.092 315.313 578.129 314.179 Q580.166 313.045 582.967 313.045 Q585.791 313.045 587.758 314.48 Q589.749 315.915 590.698 318.647 Z" fill="#000000" fill-rule="nonzero" fill-opacity="1"></path><path clip-path="url(#clip070)" d="M620.814 335.707 L620.814 349.457 L616.531 349.457 L616.531 313.67 L620.814 313.67 L620.814 317.605 Q622.156 315.29 624.193 314.179 Q626.254 313.045 629.101 313.045 Q633.823 313.045 636.763 316.795 Q639.726 320.545 639.726 326.656 Q639.726 332.767 636.763 336.517 Q633.823 340.267 629.101 340.267 Q626.254 340.267 624.193 339.156 Q622.156 338.022 620.814 335.707 M635.305 326.656 Q635.305 321.957 633.36 319.295 Q631.439 316.61 628.059 316.61 Q624.68 316.61 622.735 319.295 Q620.814 321.957 620.814 326.656 Q620.814 331.355 622.735 334.04 Q624.68 336.702 628.059 336.702 Q631.439 336.702 633.36 334.04 Q635.305 331.355 635.305 326.656 Z" fill="#000000" fill-rule="nonzero" fill-opacity="1"></path><path clip-path="url(#clip070)" d="M646.346 329.364 L646.346 313.67 L650.605 313.67 L650.605 329.202 Q650.605 332.883 652.041 334.735 Q653.476 336.563 656.346 336.563 Q659.795 336.563 661.786 334.364 Q663.8 332.165 663.8 328.369 L663.8 313.67 L668.059 313.67 L668.059 339.596 L663.8 339.596 L663.8 335.614 Q662.249 337.975 660.189 339.133 Q658.152 340.267 655.443 340.267 Q650.976 340.267 648.661 337.489 Q646.346 334.711 646.346 329.364 M657.064 313.045 L657.064 313.045 Z" fill="#000000" fill-rule="nonzero" fill-opacity="1"></path><path clip-path="url(#clip070)" d="M681.045 306.309 L681.045 313.67 L689.818 313.67 L689.818 316.98 L681.045 316.98 L681.045 331.054 Q681.045 334.225 681.901 335.128 Q682.781 336.031 685.443 336.031 L689.818 336.031 L689.818 339.596 L685.443 339.596 Q680.513 339.596 678.638 337.767 Q676.763 335.915 676.763 331.054 L676.763 316.98 L673.638 316.98 L673.638 313.67 L676.763 313.67 L676.763 306.309 L681.045 306.309 Z" fill="#000000" fill-rule="nonzero" fill-opacity="1"></path><path clip-path="url(#clip070)" d="M717.596 325.568 L717.596 327.651 L698.013 327.651 Q698.29 332.049 700.651 334.364 Q703.036 336.656 707.272 336.656 Q709.725 336.656 712.017 336.054 Q714.332 335.452 716.6 334.249 L716.6 338.276 Q714.309 339.248 711.901 339.758 Q709.494 340.267 707.017 340.267 Q700.813 340.267 697.179 336.656 Q693.568 333.045 693.568 326.887 Q693.568 320.522 696.994 316.795 Q700.443 313.045 706.276 313.045 Q711.508 313.045 714.54 316.425 Q717.596 319.781 717.596 325.568 M713.337 324.318 Q713.29 320.823 711.369 318.739 Q709.471 316.656 706.323 316.656 Q702.758 316.656 700.605 318.67 Q698.475 320.684 698.151 324.341 L713.337 324.318 Z" fill="#000000" fill-rule="nonzero" fill-opacity="1"></path><path clip-path="url(#clip070)" d="M741.647 317.605 L741.647 303.577 L745.906 303.577 L745.906 339.596 L741.647 339.596 L741.647 335.707 Q740.304 338.022 738.244 339.156 Q736.207 340.267 733.336 340.267 Q728.637 340.267 725.674 336.517 Q722.735 332.767 722.735 326.656 Q722.735 320.545 725.674 316.795 Q728.637 313.045 733.336 313.045 Q736.207 313.045 738.244 314.179 Q740.304 315.29 741.647 317.605 M727.133 326.656 Q727.133 331.355 729.054 334.04 Q730.998 336.702 734.378 336.702 Q737.758 336.702 739.702 334.04 Q741.647 331.355 741.647 326.656 Q741.647 321.957 739.702 319.295 Q737.758 316.61 734.378 316.61 Q730.998 316.61 729.054 319.295 Q727.133 321.957 727.133 326.656 Z" fill="#000000" fill-rule="nonzero" fill-opacity="1"></path><path clip-path="url(#clip070)" d="M769.933 305.036 L776.23 305.036 L791.554 333.948 L791.554 305.036 L796.091 305.036 L796.091 339.596 L789.794 339.596 L774.47 310.684 L774.47 339.596 L769.933 339.596 L769.933 305.036 Z" fill="#000000" fill-rule="nonzero" fill-opacity="1"></path><path clip-path="url(#clip070)" d="M815.257 316.656 Q811.831 316.656 809.841 319.341 Q807.85 322.003 807.85 326.656 Q807.85 331.309 809.817 333.994 Q811.808 336.656 815.257 336.656 Q818.66 336.656 820.651 333.971 Q822.641 331.286 822.641 326.656 Q822.641 322.05 820.651 319.364 Q818.66 316.656 815.257 316.656 M815.257 313.045 Q820.813 313.045 823.984 316.656 Q827.155 320.267 827.155 326.656 Q827.155 333.022 823.984 336.656 Q820.813 340.267 815.257 340.267 Q809.679 340.267 806.507 336.656 Q803.359 333.022 803.359 326.656 Q803.359 320.267 806.507 316.656 Q809.679 313.045 815.257 313.045 Z" fill="#000000" fill-rule="nonzero" fill-opacity="1"></path><path clip-path="url(#clip070)" d="M851.276 317.605 L851.276 303.577 L855.535 303.577 L855.535 339.596 L851.276 339.596 L851.276 335.707 Q849.933 338.022 847.873 339.156 Q845.836 340.267 842.965 340.267 Q838.266 340.267 835.303 336.517 Q832.364 332.767 832.364 326.656 Q832.364 320.545 835.303 316.795 Q838.266 313.045 842.965 313.045 Q845.836 313.045 847.873 314.179 Q849.933 315.29 851.276 317.605 M836.762 326.656 Q836.762 331.355 838.683 334.04 Q840.627 336.702 844.007 336.702 Q847.387 336.702 849.331 334.04 Q851.276 331.355 851.276 326.656 Q851.276 321.957 849.331 319.295 Q847.387 316.61 844.007 316.61 Q840.627 316.61 838.683 319.295 Q836.762 321.957 836.762 326.656 Z" fill="#000000" fill-rule="nonzero" fill-opacity="1"></path><path clip-path="url(#clip070)" d="M886.484 325.568 L886.484 327.651 L866.901 327.651 Q867.178 332.049 869.539 334.364 Q871.924 336.656 876.16 336.656 Q878.613 336.656 880.905 336.054 Q883.22 335.452 885.488 334.249 L885.488 338.276 Q883.197 339.248 880.789 339.758 Q878.382 340.267 875.905 340.267 Q869.701 340.267 866.067 336.656 Q862.456 333.045 862.456 326.887 Q862.456 320.522 865.882 316.795 Q869.331 313.045 875.164 313.045 Q880.396 313.045 883.428 316.425 Q886.484 319.781 886.484 325.568 M882.224 324.318 Q882.178 320.823 880.257 318.739 Q878.359 316.656 875.211 316.656 Q871.646 316.656 869.493 318.67 Q867.363 320.684 867.039 324.341 L882.224 324.318 Z" fill="#000000" fill-rule="nonzero" fill-opacity="1"></path><path clip-path="url(#clip070)" d="M910.002 314.434 L910.002 318.462 Q908.197 317.536 906.252 317.073 Q904.308 316.61 902.224 316.61 Q899.053 316.61 897.456 317.582 Q895.882 318.554 895.882 320.499 Q895.882 321.98 897.016 322.837 Q898.15 323.67 901.576 324.434 L903.035 324.758 Q907.572 325.73 909.47 327.512 Q911.391 329.272 911.391 332.443 Q911.391 336.054 908.521 338.161 Q905.673 340.267 900.673 340.267 Q898.59 340.267 896.322 339.85 Q894.076 339.457 891.576 338.647 L891.576 334.249 Q893.937 335.475 896.229 336.1 Q898.521 336.702 900.766 336.702 Q903.775 336.702 905.396 335.684 Q907.016 334.642 907.016 332.767 Q907.016 331.031 905.835 330.105 Q904.678 329.179 900.72 328.323 L899.238 327.975 Q895.28 327.142 893.521 325.429 Q891.761 323.693 891.761 320.684 Q891.761 317.026 894.354 315.036 Q896.947 313.045 901.715 313.045 Q904.076 313.045 906.16 313.392 Q908.243 313.739 910.002 314.434 Z" fill="#000000" fill-rule="nonzero" fill-opacity="1"></path></svg>